HIERARCHY
ROOT Hips
{
    OFFSET   0.000000   0.000000   0.000000
    CHANNELS 6 Xposition Yposition Zposition Zrotation Xrotation Yrotation
    JOINT Chest
    {
        OFFSET   0.000000   8.007230   0.000000
        CHANNELS 3 Zrotation Xrotation Yrotation
        JOINT Chest2
        {
            OFFSET   0.000000  22.077100   0.000000
            CHANNELS 3 Zrotation Xrotation Yrotation
            JOINT Neck
            {
                OFFSET   0.000000  23.255100   0.000000
                CHANNELS 3 Zrotation Xrotation Yrotation
                JOINT Head
                {
                    OFFSET   0.000000  14.370100   1.956600
                    CHANNELS 3 Zrotation Xrotation Yrotation
                    End Site
                    {
                        OFFSET   0.000000  19.566000   0.000000
                    }
                }
            }
            JOINT LeftCollar
            {
                OFFSET   3.911900  19.017000  -0.467063
                CHANNELS 3 Zrotation Xrotation Yrotation
                JOINT LeftShoulder
                {
                    OFFSET  10.383700   0.000000   0.000000
                    CHANNELS 3 Zrotation Xrotation Yrotation
                    JOINT LeftElbow
                    {
                        OFFSET  26.662100   0.001193   0.000980
                        CHANNELS 3 Zrotation Xrotation Yrotation
                        JOINT LeftWrist
                        {
                            OFFSET  28.869000  -0.000059  -0.000082
                            CHANNELS 3 Zrotation Xrotation Yrotation
                            JOINT LeftFinger0
                            {
                                OFFSET   2.044650  -2.323450   3.252850
                                CHANNELS 3 Zrotation Xrotation Yrotation
                                JOINT LeftFinger01
                                {
                                    OFFSET   3.088130   0.000000   0.000000
                                    CHANNELS 3 Zrotation Xrotation Yrotation
                                    JOINT LeftFinger02
                                    {
                                        OFFSET   2.639460   0.000000   0.000000
                                        CHANNELS 3 Zrotation Xrotation Yrotation
                                        End Site
                                        {
                                            OFFSET   2.582190   0.000000   0.000000
                                        }
                                    }
                                }
                            }
                            JOINT LeftFinger1
                            {
                                OFFSET   8.364480   0.000000   3.252850
                                CHANNELS 3 Zrotation Xrotation Yrotation
                                JOINT LeftFinger11
                                {
                                    OFFSET   4.646930   0.000000   0.000000
                                    CHANNELS 3 Zrotation Xrotation Yrotation
                                    JOINT LeftFinger12
                                    {
                                        OFFSET   2.323470   0.000000   0.000000
                                        CHANNELS 3 Zrotation Xrotation Yrotation
                                        End Site
                                        {
                                            OFFSET   2.273050   0.000000   0.000000
                                        }
                                    }
                                }
                            }
                            JOINT LeftFinger2
                            {
                                OFFSET   8.364490   0.000016   1.078090
                                CHANNELS 3 Zrotation Xrotation Yrotation
                                JOINT LeftFinger21
                                {
                                    OFFSET   5.111610   0.000000   0.000000
                                    CHANNELS 3 Zrotation Xrotation Yrotation
                                    JOINT LeftFinger22
                                    {
                                        OFFSET   2.788150   0.000016   0.000000
                                        CHANNELS 3 Zrotation Xrotation Yrotation
                                        End Site
                                        {
                                            OFFSET   2.727660   0.000000   0.000000
                                        }
                                    }
                                }
                            }
                            JOINT LeftFinger3
                            {
                                OFFSET   7.899780   0.000015  -1.078090
                                CHANNELS 3 Zrotation Xrotation Yrotation
                                JOINT LeftFinger31
                                {
                                    OFFSET   4.646930   0.000000   0.000000
                                    CHANNELS 3 Zrotation Xrotation Yrotation
                                    JOINT LeftFinger32
                                    {
                                        OFFSET   2.323470   0.000000   0.000000
                                        CHANNELS 3 Zrotation Xrotation Yrotation
                                        End Site
                                        {
                                            OFFSET   2.273050   0.000000   0.000000
                                        }
                                    }
                                }
                            }
                            JOINT LeftFinger4
                            {
                                OFFSET   7.435090   0.000000  -3.252850
                                CHANNELS 3 Zrotation Xrotation Yrotation
                                JOINT LeftFinger41
                                {
                                    OFFSET   3.717550   0.000000   0.000000
                                    CHANNELS 3 Zrotation Xrotation Yrotation
                                    JOINT LeftFinger42
                                    {
                                        OFFSET   1.858770   0.000000   0.000000
                                        CHANNELS 3 Zrotation Xrotation Yrotation
                                        End Site
                                        {
                                            OFFSET   1.818440   0.000000   0.000000
                                        }
                                    }
                                }
                            }
                        }
                    }
                }
            }
            JOINT RightCollar
            {
                OFFSET  -3.911910  19.017000  -0.467062
                CHANNELS 3 Zrotation Xrotation Yrotation
                JOINT RightShoulder
                {
                    OFFSET -10.383700   0.000014   0.000000
                    CHANNELS 3 Zrotation Xrotation Yrotation
                    JOINT RightElbow
                    {
                        OFFSET -26.662100   0.001225   0.001091
                        CHANNELS 3 Zrotation Xrotation Yrotation
                        JOINT RightWrist
                        {
                            OFFSET -28.869000  -0.000020  -0.000085
                            CHANNELS 3 Zrotation Xrotation Yrotation
                            JOINT RightFinger0
                            {
                                OFFSET  -2.044650  -2.323490   3.252850
                                CHANNELS 3 Zrotation Xrotation Yrotation
                                JOINT RightFinger01
                                {
                                    OFFSET  -3.088130   0.000000   0.000000
                                    CHANNELS 3 Zrotation Xrotation Yrotation
                                    JOINT RightFinger02
                                    {
                                        OFFSET  -2.639460   0.000000   0.000000
                                        CHANNELS 3 Zrotation Xrotation Yrotation
                                        End Site
                                        {
                                            OFFSET  -2.582190   0.000000   0.000000
                                        }
                                    }
                                }
                            }
                            JOINT RightFinger1
                            {
                                OFFSET  -8.364480   0.000000   3.252850
                                CHANNELS 3 Zrotation Xrotation Yrotation
                                JOINT RightFinger11
                                {
                                    OFFSET  -4.646930   0.000000   0.000000
                                    CHANNELS 3 Zrotation Xrotation Yrotation
                                    JOINT RightFinger12
                                    {
                                        OFFSET  -2.323470   0.000000   0.000000
                                        CHANNELS 3 Zrotation Xrotation Yrotation
                                        End Site
                                        {
                                            OFFSET  -2.273050   0.000000   0.000000
                                        }
                                    }
                                }
                            }
                            JOINT RightFinger2
                            {
                                OFFSET  -8.364480   0.000000   1.078090
                                CHANNELS 3 Zrotation Xrotation Yrotation
                                JOINT RightFinger21
                                {
                                    OFFSET  -5.111620   0.000000   0.000000
                                    CHANNELS 3 Zrotation Xrotation Yrotation
                                    JOINT RightFinger22
                                    {
                                        OFFSET  -2.788160   0.000000   0.000000
                                        CHANNELS 3 Zrotation Xrotation Yrotation
                                        End Site
                                        {
                                            OFFSET  -2.727660   0.000000   0.000000
                                        }
                                    }
                                }
                            }
                            JOINT RightFinger3
                            {
                                OFFSET  -7.899780   0.000000  -1.078090
                                CHANNELS 3 Zrotation Xrotation Yrotation
                                JOINT RightFinger31
                                {
                                    OFFSET  -4.646930   0.000000   0.000000
                                    CHANNELS 3 Zrotation Xrotation Yrotation
                                    JOINT RightFinger32
                                    {
                                        OFFSET  -2.323470   0.000000   0.000000
                                        CHANNELS 3 Zrotation Xrotation Yrotation
                                        End Site
                                        {
                                            OFFSET  -2.273050   0.000000   0.000000
                                        }
                                    }
                                }
                            }
                            JOINT RightFinger4
                            {
                                OFFSET  -7.435090   0.000000  -3.252850
                                CHANNELS 3 Zrotation Xrotation Yrotation
                                JOINT RightFinger41
                                {
                                    OFFSET  -3.717550   0.000000   0.000000
                                    CHANNELS 3 Zrotation Xrotation Yrotation
                                    JOINT RightFinger42
                                    {
                                        OFFSET  -1.858760   0.000000   0.000000
                                        CHANNELS 3 Zrotation Xrotation Yrotation
                                        End Site
                                        {
                                            OFFSET  -1.818440   0.000000   0.000000
                                        }
                                    }
                                }
                            }
                        }
                    }
                }
            }
        }
    }
    JOINT LeftHip
    {
        OFFSET   9.783030   0.000000   0.000000
        CHANNELS 3 Zrotation Xrotation Yrotation
        JOINT LeftKnee
        {
            OFFSET   0.000063 -41.789100   0.000608
            CHANNELS 3 Zrotation Xrotation Yrotation
            JOINT LeftAnkle
            {
                OFFSET   0.000048 -41.133200  -0.000184
                CHANNELS 3 Zrotation Xrotation Yrotation
                JOINT LeftToe
                {
                    OFFSET   0.000000  -6.358960  14.674500
                    CHANNELS 3 Zrotation Xrotation Yrotation
                    End Site
                    {
                        OFFSET   0.000000   0.000000   3.913200
                    }
                }
            }
        }
    }
    JOINT RightHip
    {
        OFFSET  -9.783030   0.000000   0.000000
        CHANNELS 3 Zrotation Xrotation Yrotation
        JOINT RightKnee
        {
            OFFSET   0.000071 -41.789100   0.001239
            CHANNELS 3 Zrotation Xrotation Yrotation
            JOINT RightAnkle
            {
                OFFSET   0.000037 -41.133200  -0.000166
                CHANNELS 3 Zrotation Xrotation Yrotation
                JOINT RightToe
                {
                    OFFSET   0.000000  -6.358960  14.674500
                    CHANNELS 3 Zrotation Xrotation Yrotation
                    End Site
                    {
                        OFFSET   0.000000   0.000000   3.913200
                    }
                }
            }
        }
    }
}
MOTION
Frames: 6
Frame Time:   0.016667
  0.257735  89.462000   2.351360  -0.895002  -3.328340   2.747180   1.287000   3.848000  -1.511560   2.684600   7.659580  -3.120090  -2.575100  -1.226220  -0.059274  -4.235980  -2.471230   9.078660  -9.874680  -1.725230  12.515900 -78.016300  10.699900  -1.117060  -0.684525   6.999770 -15.157000  12.436200  -1.966240  -1.031080  40.403000  35.433000 -49.865200 -33.635400   0.005588   0.003792 -11.816800   0.006309   0.005719 -33.098200  -1.386740   2.123380 -27.101400  -0.000237   0.001301 -18.971000   0.001206  -0.008066 -28.706900  -3.747630   6.804560 -43.380500   0.003007   0.000640 -28.900700   0.005325   0.000715 -28.189600  -3.687720   6.843180 -35.215400  -0.002989  -0.007683 -23.438300   0.000810  -0.006555 -31.309000  -4.254830   6.967750 -47.351400   0.001984  -0.002290 -31.536100   0.005334  -0.004651   6.876100   3.633500  10.914900  73.086100  -2.702100   5.307120   2.662820  -0.911280  15.183400 -21.158100   0.312438   0.505941 -39.134500  33.167200  66.339400  30.716200   0.005655  -0.003255  10.358100   0.002459   0.003261  31.673000   0.504152   0.820966  25.917300  -0.009498   0.003865  18.145000   0.001325  -0.004002  28.143300  -2.442140  -4.536700  33.682700   0.012184  -0.002261  22.434800   0.002531  -0.002098  28.162800  -3.368370  -6.263060  34.597000   0.006211  -0.000249  23.041600   0.002435  -0.000242  33.436900  -3.932550  -5.925940  50.460800   0.002268   0.005815  33.606900   0.000844   0.004556   2.654230   6.295330   2.190520  -0.134865   0.074626  12.732200  -1.947480  -3.880570   0.465748   0.000000   0.000000   0.000000   0.022817   7.045380  -4.608950   0.181425   0.430418 -14.692500   0.044546  -3.378520  -1.226000  -0.000000   0.000000   0.000000
  0.257725  89.462000   2.354730  -0.895304  -3.328580   2.741480   1.286990   3.847980  -1.511620   2.684560   7.659550  -3.120210  -2.575190  -1.232270  -0.059270  -4.235340  -2.483640   9.078460  -9.874680  -1.725150  12.515900 -78.016100  10.699400  -1.117060  -0.685200   7.000400 -15.152100  12.436200  -1.966240  -1.031030  40.401000  35.431700 -49.863900 -33.635400   0.005577   0.003786 -11.816800   0.006315   0.005856 -33.098300  -1.386740   2.123480 -27.101500  -0.000237   0.001302 -18.971100   0.001205  -0.008066 -28.706800  -3.747620   6.804580 -43.384800   0.003005   0.000640 -28.900600   0.005323   0.000712 -28.189600  -3.687740   6.843220 -35.215500  -0.002984  -0.007676 -23.438300   0.000809  -0.006555 -31.309100  -4.254910   6.967750 -47.351600   0.001983  -0.002291 -31.536200   0.005334  -0.004654   6.875820   3.633490  10.916600  73.086000  -2.702010   5.307130   2.662850  -0.911412  15.183300 -21.158100   0.312579   0.505948 -39.144000  33.170500  66.344400  30.716200   0.005644  -0.003263  10.358100   0.002463   0.003257  31.672800   0.504152   0.820323  25.917100  -0.009494   0.003862  18.144800   0.001322  -0.003998  28.143100  -2.442240  -4.540100  33.682700   0.012189  -0.002262  22.434400   0.002533  -0.002102  28.162800  -3.368400  -6.263120  34.597000   0.006202  -0.000253  23.041600   0.002436  -0.000246  33.436700  -3.932580  -5.925990  50.460400   0.002273   0.005818  33.606700   0.000844   0.004559   2.654400   6.291160   2.190580  -0.134694   0.091932  12.732400  -1.949500  -3.889350   0.466672  -0.000000   0.000000   0.000000   0.021651   7.036660  -4.604950   0.183997   0.448404 -14.697500   0.047169  -3.387140  -1.218370   0.000000   0.000000   0.000000
  0.257683  89.462000   2.360720  -0.895777  -3.328830   2.732560   1.286950   3.847960  -1.511720   2.684490   7.659490  -3.120390  -2.575360  -1.240800  -0.059248  -4.234520  -2.501110   9.078290  -9.874690  -1.725030  12.515800 -78.016000  10.699000  -1.117060  -0.686384   7.001160 -15.143100  12.436200  -1.966240  -1.030970  40.395500  35.427800 -49.860500 -33.635400   0.005556   0.003769 -11.816900   0.006325   0.006048 -33.098500  -1.386740   2.123570 -27.101700  -0.000238   0.001305 -18.971200   0.001202  -0.008066 -28.706700  -3.747590   6.804610 -43.391800   0.002999   0.000640 -28.900500   0.005318   0.000704 -28.189600  -3.687790   6.843310 -35.215500  -0.002971  -0.007659 -23.438300   0.000806  -0.006554 -31.309200  -4.255060   6.967750 -47.351700   0.001979  -0.002296 -31.536300   0.005334  -0.004660   6.875390   3.633490  10.920300  73.085900  -2.701920   5.307150   2.662860  -0.911595  15.183300 -21.158100   0.312721   0.505955 -39.153500  33.173900  66.349400  30.716200   0.005622  -0.003272  10.358100   0.002467   0.003253  31.672500   0.504153   0.817076  25.916800  -0.009487   0.003855  18.144600   0.001313  -0.003987  28.142800  -2.442330  -4.545770  33.682700   0.012199  -0.002269  22.434000   0.002538  -0.002111  28.162700  -3.368450  -6.263230  34.597000   0.006180  -0.000265  23.041600   0.002440  -0.000256  33.436400  -3.932650  -5.926100  50.460000   0.002286   0.005827  33.606400   0.000841   0.004567   2.654800   6.284930   2.190700  -0.135041   0.118797  12.732600  -1.952490  -3.903520   0.469995  -0.000000   0.000000   0.000000   0.020064   7.027990  -4.597490   0.186593   0.466383 -14.705200   0.049969  -3.395760  -1.207800   0.000000   0.000000   0.000000
  0.257583  89.461900   2.366170  -0.896081  -3.328790   2.726620   1.286890   3.847940  -1.511800   2.684360   7.659440  -3.120550  -2.575510  -1.244280  -0.059198  -4.234480  -2.508150   9.080230  -9.876950  -1.724940  12.519100 -78.016400  10.701700  -1.114940  -0.687145   6.998100 -15.133800  12.436200  -1.963170  -1.030970  40.382800  35.419000 -49.853100 -33.635500   0.005537   0.003733 -11.816900   0.006334   0.006135 -33.098900  -1.386160   2.123320 -27.102000  -0.000241   0.001313 -18.971400   0.001196  -0.012725 -28.706500  -3.747540   6.804670 -43.398300   0.002989   0.000641 -28.900400   0.005308   0.000694 -28.189500  -3.687850   6.843460 -35.215500  -0.002952  -0.007632 -23.438200   0.000801  -0.006551 -31.309100  -4.255200   6.967750 -47.351700   0.001972  -0.002305 -31.536300   0.005333  -0.004669   6.874330   3.637480  10.925500  73.085700  -2.701940   5.307140   2.659330  -0.911679  15.180800 -21.162700   0.311508   0.501683 -39.149700  33.171200  66.348100  30.718500   0.005598  -0.003257  10.359500   0.002469   0.003256  31.674300   0.499920   0.808870  25.918300  -0.009476   0.003849  18.144700   0.001299  -0.003973  28.142500  -2.442060  -4.550700  33.687600   0.012213  -0.002283  22.436700   0.002543  -0.002122  28.162600  -3.368530  -6.263370  34.602600   0.006146  -0.000284  23.045300   0.002448  -0.000272  33.438000  -3.932740  -5.926240  50.462300   0.002307   0.005843  33.607900   0.000835   0.004579   2.656290   6.280820   2.190870  -0.137274   0.139728  12.731000  -1.954480  -3.916320   0.476076  -0.000000   0.000000   0.000000   0.016091   7.048630  -4.587820   0.193217   0.430614 -14.710700   0.045133  -3.376540  -1.204370  -0.000000   0.000000  -0.000000
  0.257474  89.461900   2.372340  -0.896374  -3.328410   2.721410   1.286840   3.847910  -1.511850   2.684270   7.659370  -3.120640  -2.575590  -1.246110  -0.059135  -4.234350  -2.511830   9.082150  -9.880260  -1.724860  12.525400 -78.016900  10.708000  -1.112830  -0.687641   6.992820 -15.123200  12.436300  -1.958840  -1.030970  40.373800  35.412600 -49.848000 -33.635600   0.005513   0.003703 -11.817000   0.006343   0.006165 -33.099200  -1.385160   2.122730 -27.102300  -0.000246   0.001323 -18.971600   0.001189  -0.020110 -28.706300  -3.747480   6.804730 -43.402000   0.002977   0.000642 -28.900200   0.005296   0.000680 -28.189400  -3.687930   6.843620 -35.215400  -0.002927  -0.007598 -23.438200   0.000795  -0.006546 -31.308900  -4.255280   6.967720 -47.351400   0.001963  -0.002317 -31.536100   0.005332  -0.004680   6.873490   3.641510  10.931400  73.085600  -2.702090   5.307140   2.653760  -0.911731  15.173600 -21.168600   0.310295   0.495043 -39.145600  33.168000  66.347300  30.722300   0.005568  -0.003227  10.361800   0.002470   0.003259  31.678200   0.493787   0.800127  25.921400  -0.009462   0.003841  18.145000   0.001281  -0.003954  28.142300  -2.441520  -4.554840  33.695900   0.012231  -0.002302  22.441500   0.002548  -0.002136  28.162500  -3.368600  -6.263500  34.611700   0.006104  -0.000308  23.051400   0.002457  -0.000293  33.441600  -3.932820  -5.926360  50.467500   0.002334   0.005864  33.611400   0.000827   0.004594   2.658580   6.278790   2.190980  -0.138985   0.151100  12.727300  -1.955150  -3.923710   0.484934  -0.000000   0.000000   0.000000   0.011860   7.074480  -4.581650   0.203676   0.384718 -14.713600   0.039778  -3.357310  -1.202470   0.000000   0.000000   0.000000
  0.257401  89.461800   2.379520  -0.896845  -3.324050   2.716930   1.286810   3.847870  -1.511450   2.684180   7.659300  -3.119830  -2.575540  -1.247060  -0.059070  -4.234100  -2.513870   9.078430  -9.881580  -1.724850  12.532600 -78.020400  10.716500  -1.113200  -0.688395   6.987450 -15.112700  12.436300  -1.956890  -1.031190  40.377600  35.414000 -49.852200 -33.635600   0.005481   0.003699 -11.817100   0.006349   0.004812 -33.099500  -1.384220   2.121790 -27.102500  -0.000250   0.001336 -18.971700   0.001179  -0.025436 -28.706300  -3.747410   6.804790 -43.397900   0.002961   0.000644 -28.900200   0.005281   0.000663 -28.189400  -3.688010   6.843780 -35.210600  -0.002899  -0.007557 -23.438200   0.000787  -0.006541 -31.305100  -4.255260   6.963490 -47.345800   0.001952  -0.002332 -31.532300   0.005331  -0.004696   6.876930   3.641520  10.938200  73.086000  -2.705280   5.307150   2.648970  -0.911275  15.162200 -21.170000   0.310941   0.490757 -39.142500  33.169200  66.351100  30.724600   0.005534  -0.003185  10.363800   0.002472   0.003259  31.685000   0.490423   0.794468  25.926800  -0.009443   0.003828  18.147100   0.001258  -0.003930  28.142200  -2.440830  -4.556620  33.703500   0.012250  -0.002320  22.446500   0.002556  -0.002155  28.162300  -3.368620  -6.263560  34.619500   0.006054  -0.000335  23.056100   0.002467  -0.000319  33.448000  -3.932850  -5.926410  50.476500   0.002365   0.005889  33.617400   0.000817   0.004611   2.658720   6.322630   2.191140  -0.141467   0.067240  12.722000  -1.944780  -3.887510   0.497464  -0.000000   0.000000   0.000000   0.011127   7.079040  -4.582110   0.210159   0.375119 -14.707500   0.039444  -3.357660  -1.199570  -0.000000   0.000000  -0.000000
